<svg aria-hidden="true" style="width:0;height:0;position:absolute;overflow:hidden" xmlns="http://www.w3.org/2000/svg"><defs><symbol id="logo" viewBox="0 0 113 32"><path d="M29.424 5.378c.905 0 1.724-.008 2.543 0 2.084.025 3.569 1.071 4.039 2.96.178.713.161 1.484.158 2.228 0 .422-.261.797-.744.76s-.499-.465-.517-.855c-.031-.701-.008-1.419-.15-2.101-.195-.941-1.017-1.536-1.986-1.536-9.746-.005-19.493-.005-29.24 0-.551.003-1.078.223-1.467.61s-.608.911-.609 1.458c-.007 6.441-.007 12.883 0 19.327 0 1.196.922 2.088 2.173 2.115.757.016 1.516 0 2.275 0h26.5c1.626 0 2.512-.857 2.543-2.459.012-.553 0-1.113.067-1.651.058-.279.209-.743.634-.743s.654.458.676.712c.134 1.605.096 3.196-1.221 4.412a3.878 3.878 0 0 1-2.709 1.056c-9.324 0-18.648-.04-27.97.028-2.338.02-4.428-1.467-4.392-4.342.045-3.652.011-7.306.011-10.958 0-2.104.071-4.21-.019-6.31-.107-2.495 1.064-4.149 3.929-4.736C9.3 4.254 14.621 3.015 19.953 1.833c2.216-.492 4.428-.996 6.646-1.48 1.349-.296 2.785.816 2.82 2.189.024.906.005 1.813.005 2.837zm-18.185-.293.048.235h16.927c0-.894.007-1.753 0-2.613-.009-.824-.495-1.189-1.31-1.015a23959.4 23959.4 0 0 0-14.205 3.022c-.49.105-.974.238-1.46.371z"/><path d="M14.465 24.057a56.205 56.205 0 0 1-4.084-1.225 2.018 2.018 0 0 0-.649-.158c-2.533-.094-4.703-1.949-4.703-5.359s2.09-5.579 4.972-5.579c2.881 0 4.782 2.23 4.782 5.359 0 2.718-1.267 4.462-3.041 5.076v.062a47.19 47.19 0 0 0 3.12.676l-.396 1.148zm-1.14-6.898c0-2.125-1.108-4.307-3.371-4.307-2.327 0-3.468 2.137-3.451 4.433-.011 2.246 1.239 4.272 3.393 4.272 2.201 0 3.435-1.978 3.435-4.398h-.005zM23.384 20.428c0 .785.016 1.477.064 2.074h-1.235l-.079-1.241h-.032a2.896 2.896 0 0 1-2.533 1.414c-1.204 0-2.643-.664-2.643-3.332v-4.447h1.393v4.212c0 1.445.443 2.42 1.709 2.42a2.018 2.018 0 0 0 1.837-1.258c.084-.226.127-.466.126-.707v-4.668h1.393v5.533zM30.335 22.502l-.111-.959h-.047c-.272.36-.626.65-1.034.847s-.856.294-1.309.285c-1.552 0-2.343-1.084-2.343-2.184 0-1.838 1.646-2.844 4.608-2.829v-.157c0-.628-.175-1.76-1.74-1.76a3.83 3.83 0 0 0-1.994.566l-.317-.911c.633-.409 1.551-.676 2.517-.676 2.343 0 2.913 1.594 2.913 3.112v2.844c-.011.61.032 1.22.126 1.823h-1.269zm-.212-3.882c-1.519-.032-3.245.236-3.245 1.714 0 .895.602 1.319 1.314 1.319a1.914 1.914 0 0 0 1.853-1.273c.049-.142.076-.29.079-.44v-1.32zM34.118 16.955c0-.785-.016-1.429-.063-2.059h1.235l.079 1.258h.032c.379-.723 1.266-1.431 2.532-1.431 1.061 0 2.707.628 2.707 3.237v4.542h-1.393v-4.384c0-1.226-.459-2.248-1.773-2.248-.424.006-.834.146-1.172.401s-.583.61-.702 1.014a1.984 1.984 0 0 0-.095.644v4.572h-1.388v-5.547zM44.916 12.712v2.184h1.995v1.053h-1.995v4.102c0 .942.268 1.477 1.045 1.477a3.19 3.19 0 0 0 .803-.094l.063 1.037c-.397.137-.815.2-1.235.187-.649 0-1.171-.203-1.504-.581-.395-.409-.535-1.085-.535-1.981v-4.149h-1.187v-1.053h1.187v-1.822l1.364-.361zM55.714 18.635c0 2.813-1.963 4.038-3.816 4.038-2.074 0-3.674-1.508-3.674-3.912 0-2.547 1.678-4.04 3.799-4.04 2.201.001 3.69 1.589 3.69 3.913zm-6.079.078c0 1.666.965 2.922 2.327 2.922 1.33 0 2.327-1.241 2.327-2.954 0-1.289-.649-2.922-2.295-2.922s-2.359 1.51-2.359 2.956v-.001zM57.868 16.955c0-.785-.016-1.429-.064-2.059h1.219l.063 1.226h.048c.427-.723 1.14-1.399 2.409-1.399.478-.006.944.138 1.334.411s.683.662.838 1.11h.031c.212-.386.504-.723.855-.991a2.625 2.625 0 0 1 1.694-.531c1.013 0 2.517.664 2.517 3.301v4.478h-1.366v-4.304c0-1.461-.535-2.342-1.662-2.342-.792 0-1.409.582-1.647 1.257-.072.224-.11.457-.111.692v4.698h-1.361v-4.558c0-1.21-.536-2.09-1.599-2.09-.87 0-1.504.692-1.725 1.383a1.9 1.9 0 0 0-.111.676v4.588h-1.361v-5.547zM75.71 22.502l-.111-.959h-.047a2.853 2.853 0 0 1-2.343 1.132c-1.551 0-2.343-1.084-2.343-2.184 0-1.838 1.646-2.844 4.607-2.829v-.157c0-.628-.174-1.76-1.739-1.76a3.83 3.83 0 0 0-1.994.566l-.317-.911c.633-.409 1.552-.676 2.517-.676 2.343 0 2.913 1.594 2.913 3.112v2.844c-.008.61.037 1.22.134 1.823h-1.276zm-.206-3.882c-1.519-.032-3.245.236-3.245 1.714 0 .895.602 1.319 1.314 1.319.405.011.802-.107 1.136-.336s.584-.557.716-.937c.049-.142.077-.29.079-.44v-1.32zM79.493 16.955c0-.785-.015-1.429-.063-2.059h1.235l.079 1.258h.032c.38-.723 1.266-1.431 2.533-1.431 1.06 0 2.706.628 2.706 3.237v4.542h-1.393v-4.384c0-1.226-.459-2.248-1.773-2.248-.424.006-.834.146-1.171.401s-.584.61-.702 1.014a1.983 1.983 0 0 0-.094.644v4.572h-1.389v-5.547zM90.228 12.758c.016.472-.332.849-.886.849a.816.816 0 0 1-.783-.523.805.805 0 0 1-.056-.325.83.83 0 0 1 .248-.617.862.862 0 0 1 .623-.246.834.834 0 0 1 .618.245.827.827 0 0 1 .236.619zm-1.551 9.744v-7.606h1.393v7.606h-1.393zM97.02 22.502l-.11-.959h-.048c-.272.36-.626.65-1.034.847s-.857.294-1.31.285c-1.551 0-2.343-1.084-2.343-2.184 0-1.838 1.647-2.844 4.607-2.829v-.157c0-.628-.174-1.76-1.739-1.76a3.833 3.833 0 0 0-1.995.566l-.317-.911c.634-.409 1.552-.676 2.517-.676 2.343 0 2.913 1.594 2.913 3.112v2.844c-.008.61.037 1.22.134 1.823H97.02zm-.205-3.882c-1.52-.032-3.247.236-3.247 1.714 0 .895.603 1.319 1.314 1.319.405.011.803-.106 1.136-.335s.584-.557.717-.937c.049-.141.077-.29.08-.44v-1.32zM102.578 19.166l-1.108 3.332h-1.425l3.626-10.591h1.666l3.642 10.591h-1.473l-1.144-3.332h-3.783zm3.498-1.062-1.044-3.055a22.855 22.855 0 0 1-.555-1.933h-.031a35.577 35.577 0 0 1-.535 1.917l-1.048 3.071h3.213zM112.314 11.911v10.591h-1.377V11.911h1.377z"/></symbol><symbol id="Polygon" viewBox="0 0 29 32"><path fill="#fff" style="fill:var(--color1,#fff)" d="M28.64 15.776 1.44 31.552V0l27.2 15.776z"/></symbol><symbol id="Vector" viewBox="0 0 60 32"><path fill="#fff" style="fill:var(--color1,#fff)" d="M59.288 2.904a1.964 1.964 0 0 1-.608 1.418L31.692 30.403c-.389.376-.916.588-1.467.588s-1.079-.212-1.468-.588L1.769 4.322c-.797-.785-.79-2.045.014-2.822S3.89.716 4.704 1.486l25.519 24.661 25.52-24.662c.594-.574 1.487-.745 2.262-.435s1.282 1.042 1.282 1.853l.001.001z"/></symbol><symbol id="uk" viewBox="0 0 45 32"><path fill="#ffff0b" style="fill:var(--color1,#ffff0b)" d="M1.6 0h43.294v32H1.6V0z"/><path fill="#268cff" style="fill:var(--color2,#268cff)" d="M1.6 0h43.294v16H1.6V0z"/></symbol><symbol id="vector-up" viewBox="0 0 60 32"><path fill="#fff" style="fill:var(--color1,#fff)" d="M1.149 29.096a1.964 1.964 0 0 1 .608-1.418L28.745 1.597c.389-.376.916-.588 1.467-.588s1.079.212 1.468.588l26.988 26.081c.797.785.79 2.045-.014 2.823s-2.107.784-2.921.014L30.214 5.854 4.694 30.516c-.594.574-1.487.745-2.262.435S1.15 29.909 1.15 29.098l-.001-.001z"/></symbol></defs></svg>