<svg aria-hidden="true" style="position: absolute; width: 0; height: 0; overflow: hidden;" version="1.1" xmlns="http://www.w3.org/2000/svg" xmlns:xlink="http://www.w3.org/1999/xlink">
<defs>
<symbol id="logo" viewBox="0 0 113 32">
<path d="M29.424 5.378c0.905 0 1.724-0.008 2.543 0 2.084 0.025 3.569 1.071 4.039 2.96 0.178 0.713 0.161 1.484 0.158 2.228 0 0.422-0.261 0.797-0.744 0.76s-0.499-0.465-0.517-0.855c-0.031-0.701-0.008-1.419-0.15-2.101-0.195-0.941-1.017-1.536-1.986-1.536-9.746-0.005-19.493-0.005-29.24 0-0.551 0.003-1.078 0.223-1.467 0.61s-0.608 0.911-0.609 1.458c-0.007 6.441-0.007 12.883 0 19.327 0 1.196 0.922 2.088 2.173 2.115 0.757 0.016 1.516 0 2.275 0h26.5c1.626 0 2.512-0.857 2.543-2.459 0.012-0.553 0-1.113 0.067-1.651 0.058-0.279 0.209-0.743 0.634-0.743s0.654 0.458 0.676 0.712c0.134 1.605 0.096 3.196-1.221 4.412-0.729 0.689-1.702 1.068-2.709 1.056-9.324 0-18.648-0.040-27.97 0.028-2.338 0.020-4.428-1.467-4.392-4.342 0.045-3.652 0.011-7.306 0.011-10.958 0-2.104 0.071-4.21-0.019-6.31-0.107-2.495 1.064-4.149 3.929-4.736 5.352-1.099 10.673-2.338 16.005-3.52 2.216-0.492 4.428-0.996 6.646-1.48 1.349-0.296 2.785 0.816 2.82 2.189 0.024 0.906 0.005 1.813 0.005 2.837zM11.239 5.085l0.048 0.235h16.927c0-0.894 0.007-1.753 0-2.613-0.009-0.824-0.495-1.189-1.31-1.015-4.735 1.006-9.47 2.013-14.205 3.022-0.49 0.105-0.974 0.238-1.46 0.371z"></path>
<path d="M14.465 24.057c-1.44-0.377-2.849-0.797-4.084-1.225-0.206-0.088-0.425-0.142-0.649-0.158-2.533-0.094-4.703-1.949-4.703-5.359s2.090-5.579 4.972-5.579c2.881 0 4.782 2.23 4.782 5.359 0 2.718-1.267 4.462-3.041 5.076v0.062c1.061 0.266 2.218 0.518 3.12 0.676l-0.396 1.148zM13.325 17.159c0-2.125-1.108-4.307-3.371-4.307-2.327 0-3.468 2.137-3.451 4.433-0.011 2.246 1.239 4.272 3.393 4.272 2.201 0 3.435-1.978 3.435-4.398h-0.005z"></path>
<path d="M23.384 20.428c0 0.785 0.016 1.477 0.064 2.074h-1.235l-0.079-1.241h-0.032c-0.258 0.437-0.629 0.798-1.074 1.047s-0.949 0.375-1.459 0.367c-1.204 0-2.643-0.664-2.643-3.332v-4.447h1.393v4.212c0 1.445 0.443 2.42 1.709 2.42 0.397-0.006 0.783-0.129 1.11-0.353s0.58-0.539 0.727-0.905c0.084-0.226 0.127-0.466 0.126-0.707v-4.668h1.393v5.533z"></path>
<path d="M30.335 22.502l-0.111-0.959h-0.047c-0.272 0.36-0.626 0.65-1.034 0.847s-0.856 0.294-1.309 0.285c-1.552 0-2.343-1.084-2.343-2.184 0-1.838 1.646-2.844 4.608-2.829v-0.157c0-0.628-0.175-1.76-1.74-1.76-0.705 0.002-1.395 0.198-1.994 0.566l-0.317-0.911c0.633-0.409 1.551-0.676 2.517-0.676 2.343 0 2.913 1.594 2.913 3.112v2.844c-0.011 0.61 0.032 1.22 0.126 1.823h-1.269zM30.123 18.62c-1.519-0.032-3.245 0.236-3.245 1.714 0 0.895 0.602 1.319 1.314 1.319 0.405 0.011 0.803-0.107 1.136-0.336s0.584-0.557 0.717-0.937c0.049-0.142 0.076-0.29 0.079-0.44v-1.32z"></path>
<path d="M34.118 16.955c0-0.785-0.016-1.429-0.063-2.059h1.235l0.079 1.258h0.032c0.379-0.723 1.266-1.431 2.532-1.431 1.061 0 2.707 0.628 2.707 3.237v4.542h-1.393v-4.384c0-1.226-0.459-2.248-1.773-2.248-0.424 0.006-0.834 0.146-1.172 0.401s-0.583 0.61-0.702 1.014c-0.067 0.208-0.099 0.426-0.095 0.644v4.572h-1.388v-5.547z"></path>
<path d="M44.916 12.712v2.184h1.995v1.053h-1.995v4.102c0 0.942 0.268 1.477 1.045 1.477 0.271 0.003 0.541-0.029 0.803-0.094l0.063 1.037c-0.397 0.137-0.815 0.2-1.235 0.187-0.649 0-1.171-0.203-1.504-0.581-0.395-0.409-0.535-1.085-0.535-1.981v-4.149h-1.187v-1.053h1.187v-1.822l1.364-0.361z"></path>
<path d="M55.714 18.635c0 2.813-1.963 4.038-3.816 4.038-2.074 0-3.674-1.508-3.674-3.912 0-2.547 1.678-4.040 3.799-4.040 2.201 0.001 3.69 1.589 3.69 3.913zM49.635 18.713c0 1.666 0.965 2.922 2.327 2.922 1.33 0 2.327-1.241 2.327-2.954 0-1.289-0.649-2.922-2.295-2.922s-2.359 1.51-2.359 2.956v-0.001z"></path>
<path d="M57.868 16.955c0-0.785-0.016-1.429-0.064-2.059h1.219l0.063 1.226h0.048c0.427-0.723 1.14-1.399 2.409-1.399 0.478-0.006 0.944 0.138 1.334 0.411s0.683 0.662 0.838 1.11h0.031c0.212-0.386 0.504-0.723 0.855-0.991 0.485-0.368 1.084-0.556 1.694-0.531 1.013 0 2.517 0.664 2.517 3.301v4.478h-1.366v-4.304c0-1.461-0.535-2.342-1.662-2.342-0.792 0-1.409 0.582-1.647 1.257-0.072 0.224-0.11 0.457-0.111 0.692v4.698h-1.361v-4.558c0-1.21-0.536-2.090-1.599-2.090-0.87 0-1.504 0.692-1.725 1.383-0.078 0.217-0.115 0.446-0.111 0.676v4.588h-1.361v-5.547z"></path>
<path d="M75.71 22.502l-0.111-0.959h-0.047c-0.272 0.36-0.627 0.65-1.034 0.847s-0.856 0.294-1.309 0.285c-1.551 0-2.343-1.084-2.343-2.184 0-1.838 1.646-2.844 4.607-2.829v-0.157c0-0.628-0.174-1.76-1.739-1.76-0.705 0.002-1.395 0.198-1.994 0.566l-0.317-0.911c0.633-0.409 1.552-0.676 2.517-0.676 2.343 0 2.913 1.594 2.913 3.112v2.844c-0.008 0.61 0.037 1.22 0.134 1.823h-1.276zM75.504 18.62c-1.519-0.032-3.245 0.236-3.245 1.714 0 0.895 0.602 1.319 1.314 1.319 0.405 0.011 0.802-0.107 1.136-0.336s0.584-0.557 0.716-0.937c0.049-0.142 0.077-0.29 0.079-0.44v-1.32z"></path>
<path d="M79.493 16.955c0-0.785-0.015-1.429-0.063-2.059h1.235l0.079 1.258h0.032c0.38-0.723 1.266-1.431 2.533-1.431 1.060 0 2.706 0.628 2.706 3.237v4.542h-1.393v-4.384c0-1.226-0.459-2.248-1.773-2.248-0.424 0.006-0.834 0.146-1.171 0.401s-0.584 0.61-0.702 1.014c-0.067 0.208-0.098 0.426-0.094 0.644v4.572h-1.389v-5.547z"></path>
<path d="M90.228 12.758c0.016 0.472-0.332 0.849-0.886 0.849-0.112 0.001-0.223-0.020-0.327-0.062s-0.197-0.105-0.275-0.184-0.14-0.174-0.181-0.277c-0.041-0.104-0.060-0.214-0.056-0.325-0.003-0.114 0.017-0.228 0.060-0.334s0.107-0.203 0.188-0.283 0.179-0.144 0.286-0.187c0.107-0.042 0.222-0.062 0.337-0.059 0.114-0.004 0.229 0.016 0.335 0.058s0.203 0.106 0.283 0.187c0.080 0.081 0.143 0.178 0.184 0.285s0.058 0.22 0.052 0.334zM88.677 22.502v-7.606h1.393v7.606h-1.393z"></path>
<path d="M97.020 22.502l-0.11-0.959h-0.048c-0.272 0.36-0.626 0.65-1.034 0.847s-0.857 0.294-1.31 0.285c-1.551 0-2.343-1.084-2.343-2.184 0-1.838 1.647-2.844 4.607-2.829v-0.157c0-0.628-0.174-1.76-1.739-1.76-0.705 0.002-1.396 0.198-1.995 0.566l-0.317-0.911c0.634-0.409 1.552-0.676 2.517-0.676 2.343 0 2.913 1.594 2.913 3.112v2.844c-0.008 0.61 0.037 1.22 0.134 1.823h-1.275zM96.815 18.62c-1.52-0.032-3.247 0.236-3.247 1.714 0 0.895 0.603 1.319 1.314 1.319 0.405 0.011 0.803-0.106 1.136-0.335s0.584-0.557 0.717-0.937c0.049-0.141 0.077-0.29 0.080-0.44v-1.32z"></path>
<path d="M102.578 19.166l-1.108 3.332h-1.425l3.626-10.591h1.666l3.642 10.591h-1.473l-1.144-3.332h-3.783zM106.076 18.104l-1.044-3.055c-0.238-0.692-0.401-1.32-0.555-1.933h-0.031c-0.159 0.628-0.333 1.273-0.535 1.917l-1.048 3.071h3.213z"></path>
<path d="M112.314 11.911v10.591h-1.377v-10.591h1.377z"></path>
</symbol>
<symbol id="Polygon" viewBox="0 0 29 32">
<path fill="#fff" style="fill: var(--color1, #fff)" d="M28.64 15.776l-27.2 15.776v-31.552l27.2 15.776z"></path>
</symbol>
<symbol id="Vector" viewBox="0 0 60 32">
<path fill="#fff" style="fill: var(--color1, #fff)" d="M59.288 2.904c0.001 0.532-0.218 1.042-0.608 1.418l-26.988 26.081c-0.389 0.376-0.916 0.588-1.467 0.588s-1.079-0.212-1.468-0.588l-26.988-26.081c-0.797-0.785-0.79-2.045 0.014-2.822s2.107-0.784 2.921-0.014l25.519 24.661 25.52-24.662c0.594-0.574 1.487-0.745 2.262-0.435s1.282 1.042 1.282 1.853l0.001 0.001z"></path>
</symbol>
<symbol id="uk" viewBox="0 0 45 32">
<path fill="#ffff0b" style="fill: var(--color1, #ffff0b)" d="M1.6 0h43.294v32h-43.294v-32z"></path>
<path fill="#268cff" style="fill: var(--color2, #268cff)" d="M1.6 0h43.294v16h-43.294v-16z"></path>
</symbol>
<symbol id="vector-up" viewBox="0 0 60 32">
<path fill="#fff" style="fill: var(--color1, #fff)" d="M1.149 29.096c-0.001-0.532 0.218-1.042 0.608-1.418l26.988-26.081c0.389-0.376 0.916-0.588 1.467-0.588s1.079 0.212 1.468 0.588l26.988 26.081c0.797 0.785 0.79 2.045-0.014 2.823s-2.107 0.784-2.921 0.014l-25.519-24.661-25.52 24.662c-0.594 0.574-1.487 0.745-2.262 0.435s-1.282-1.042-1.282-1.853l-0.001-0.001z"></path>
</symbol>
</defs>
</svg>
